<svg width="512" height="512" viewBox="0 0 512 512" fill="none" xmlns="http://www.w3.org/2000/svg">
	<rect width="512" height="512" fill="url(#paint0_linear_79_1)" />
	<mask id="path-1-outside-1_79_1" maskUnits="userSpaceOnUse" x="111.139" y="194.6" width="303"
		height="129" fill="black">
		<rect fill="white" x="111.139" y="194.6" width="303" height="129" />
		<path
			d="M123.139 285.7L169.619 230.4H125.239V206.6H201.119V226.9L157.439 282.2H201.959V306H123.139V285.7Z" />
		<path
			d="M254.5 220.6H271.5L289.009 269.78L311.429 206.6H341.109L302.189 306H276.509L262 259L244.369 306H221.689L182.769 206.6H212.309L233.869 269.78L254.5 220.6Z" />
		<path
			d="M389.5 244C386.7 242.32 382.281 239.907 379.294 238.6C376.774 237.48 373.928 236.453 370.754 235.52C367.674 234.493 364.641 233.98 361.654 233.98C359.228 233.98 357.268 234.353 355.774 235.1C354.374 235.847 353.674 237.107 353.674 238.88C353.674 240.187 354.094 241.26 354.934 242.1C355.774 242.94 356.988 243.733 358.574 244.48C360.161 245.133 362.074 245.787 364.314 246.44C366.648 247.093 369.261 247.887 372.154 248.82C376.728 250.22 380.834 251.76 384.474 253.44C388.208 255.12 391.381 257.127 393.994 259.46C396.608 261.7 398.614 264.453 400.014 267.72C401.414 270.987 402.114 274.953 402.114 279.62C402.114 285.593 400.994 290.633 398.754 294.74C396.608 298.753 393.714 301.973 390.074 304.4C386.528 306.827 382.468 308.6 377.894 309.72C373.414 310.747 368.888 311.26 364.314 311.26C360.674 311.26 356.941 310.98 353.114 310.42C349.288 309.86 345.461 309.067 341.634 308.04C337.901 307.013 334.261 305.8 330.714 304.4C327.261 303 325.487 302.273 322.5 300.5C322.133 300.282 332 275.5 332 275.5C335.267 277.553 339.488 279.573 343.034 281.16C346.021 282.56 349.381 283.82 353.114 284.94C356.941 286.06 360.814 286.62 364.734 286.62C367.721 286.62 369.774 286.247 370.894 285.5C372.108 284.66 372.714 283.587 372.714 282.28C372.714 280.88 372.108 279.713 370.894 278.78C369.774 277.753 368.188 276.867 366.134 276.12C364.081 275.373 361.701 274.627 358.994 273.88C356.381 273.133 353.581 272.247 350.594 271.22C346.208 269.727 342.428 268.14 339.254 266.46C336.081 264.687 333.468 262.727 331.414 260.58C329.361 258.34 327.821 255.82 326.794 253.02C325.861 250.22 325.394 247 325.394 243.36C325.394 237.853 326.374 233 328.334 228.8C330.388 224.6 333.141 221.1 336.594 218.3C340.048 215.5 343.968 213.4 348.354 212C352.834 210.507 357.548 209.76 362.494 209.76C366.134 209.76 369.681 210.133 373.134 210.88C376.588 211.533 379.901 212.42 383.074 213.54C386.341 214.567 389.374 215.733 392.174 217.04C394.974 218.253 396.494 219.42 398.734 220.54L389.5 244Z" />
	</mask>
	<path
		d="M123.139 285.7L169.619 230.4H125.239V206.6H201.119V226.9L157.439 282.2H201.959V306H123.139V285.7Z"
		stroke="#FAF8FF" stroke-width="24" mask="url(#path-1-outside-1_79_1)" />
	<path
		d="M254.5 220.6H271.5L289.009 269.78L311.429 206.6H341.109L302.189 306H276.509L262 259L244.369 306H221.689L182.769 206.6H212.309L233.869 269.78L254.5 220.6Z"
		stroke="#FAF8FF" stroke-width="24" mask="url(#path-1-outside-1_79_1)" />
	<path
		d="M389.5 244C386.7 242.32 382.281 239.907 379.294 238.6C376.774 237.48 373.928 236.453 370.754 235.52C367.674 234.493 364.641 233.98 361.654 233.98C359.228 233.98 357.268 234.353 355.774 235.1C354.374 235.847 353.674 237.107 353.674 238.88C353.674 240.187 354.094 241.26 354.934 242.1C355.774 242.94 356.988 243.733 358.574 244.48C360.161 245.133 362.074 245.787 364.314 246.44C366.648 247.093 369.261 247.887 372.154 248.82C376.728 250.22 380.834 251.76 384.474 253.44C388.208 255.12 391.381 257.127 393.994 259.46C396.608 261.7 398.614 264.453 400.014 267.72C401.414 270.987 402.114 274.953 402.114 279.62C402.114 285.593 400.994 290.633 398.754 294.74C396.608 298.753 393.714 301.973 390.074 304.4C386.528 306.827 382.468 308.6 377.894 309.72C373.414 310.747 368.888 311.26 364.314 311.26C360.674 311.26 356.941 310.98 353.114 310.42C349.288 309.86 345.461 309.067 341.634 308.04C337.901 307.013 334.261 305.8 330.714 304.4C327.261 303 325.487 302.273 322.5 300.5C322.133 300.282 332 275.5 332 275.5C335.267 277.553 339.488 279.573 343.034 281.16C346.021 282.56 349.381 283.82 353.114 284.94C356.941 286.06 360.814 286.62 364.734 286.62C367.721 286.62 369.774 286.247 370.894 285.5C372.108 284.66 372.714 283.587 372.714 282.28C372.714 280.88 372.108 279.713 370.894 278.78C369.774 277.753 368.188 276.867 366.134 276.12C364.081 275.373 361.701 274.627 358.994 273.88C356.381 273.133 353.581 272.247 350.594 271.22C346.208 269.727 342.428 268.14 339.254 266.46C336.081 264.687 333.468 262.727 331.414 260.58C329.361 258.34 327.821 255.82 326.794 253.02C325.861 250.22 325.394 247 325.394 243.36C325.394 237.853 326.374 233 328.334 228.8C330.388 224.6 333.141 221.1 336.594 218.3C340.048 215.5 343.968 213.4 348.354 212C352.834 210.507 357.548 209.76 362.494 209.76C366.134 209.76 369.681 210.133 373.134 210.88C376.588 211.533 379.901 212.42 383.074 213.54C386.341 214.567 389.374 215.733 392.174 217.04C394.974 218.253 396.494 219.42 398.734 220.54L389.5 244Z"
		stroke="#FAF8FF" stroke-width="24" mask="url(#path-1-outside-1_79_1)" />
	<path d="M192.5 254L175 275.5H200.5L192.5 254Z" fill="#FAF8FF" />
	<path
		d="M288.5 235L302.9 193.6H360.297C381.082 193.6 401.187 201.01 417 214.5L402.5 252L395 243L406.5 212L392.5 206L343 198.5L309.5 204.5L288.5 235Z"
		fill="#FAF8FF" />
	<defs>
		<linearGradient id="paint0_linear_79_1" x1="256" y1="0" x2="256" y2="512"
			gradientUnits="userSpaceOnUse">
			<stop stop-color="#140A2E" />
			<stop offset="1" stop-color="#0A0025" />
		</linearGradient>
	</defs>
</svg>
