<svg width="90" height="163" viewBox="0 0 90 163" fill="none" xmlns="http://www.w3.org/2000/svg">
	<circle cx="65.18" cy="3.19331" r="3.18" fill="#7E4FFF" fill-opacity="0.2" />
	<circle cx="80.7267" cy="3.19331" r="3.18" fill="#7E4FFF" fill-opacity="0.2" />
	<circle cx="65.18" cy="17.3267" r="3.18" fill="#7E4FFF" fill-opacity="0.2" />
	<circle cx="80.7267" cy="17.3267" r="3.18" fill="#7E4FFF" fill-opacity="0.2" />
	<circle cx="65.18" cy="31.46" r="3.18" fill="#7E4FFF" fill-opacity="0.2" />
	<circle cx="80.7267" cy="31.46" r="3.18" fill="#7E4FFF" fill-opacity="0.2" />
	<circle cx="65.18" cy="45.5933" r="3.18" fill="#7E4FFF" fill-opacity="0.2" />
	<circle cx="80.7267" cy="45.5933" r="3.18" fill="#7E4FFF" fill-opacity="0.2" />
	<circle cx="65.18" cy="59.7266" r="3.18" fill="#7E4FFF" fill-opacity="0.2" />
	<circle cx="80.7267" cy="59.7266" r="3.18" fill="#7E4FFF" fill-opacity="0.2" />
	<circle cx="65.18" cy="73.86" r="3.18" fill="#7E4FFF" fill-opacity="0.2" />
	<circle cx="80.7267" cy="73.86" r="3.18" fill="#7E4FFF" fill-opacity="0.2" />
	<circle cx="65.18" cy="88.2066" r="3.18" fill="#7E4FFF" fill-opacity="0.2" />
	<circle cx="80.7266" cy="88.2066" r="3.18" fill="#7E4FFF" fill-opacity="0.2" />
	<circle cx="65.18" cy="102.34" r="3.18" fill="#7E4FFF" fill-opacity="0.2" />
	<circle cx="80.7266" cy="102.34" r="3.18" fill="#7E4FFF" fill-opacity="0.2" />
	<circle cx="65.18" cy="116.473" r="3.18" fill="#7E4FFF" fill-opacity="0.2" />
	<circle cx="80.7266" cy="116.473" r="3.18" fill="#7E4FFF" fill-opacity="0.2" />
	<circle cx="65.18" cy="130.607" r="3.18" fill="#7E4FFF" fill-opacity="0.2" />
	<circle cx="80.7266" cy="130.607" r="3.18" fill="#7E4FFF" fill-opacity="0.2" />
	<circle cx="65.18" cy="144.74" r="3.18" fill="#7E4FFF" fill-opacity="0.2" />
	<circle cx="80.7266" cy="144.74" r="3.18" fill="#7E4FFF" fill-opacity="0.2" />
	<circle cx="65.18" cy="158.873" r="3.18" fill="#7E4FFF" fill-opacity="0.2" />
	<circle cx="80.7266" cy="158.873" r="3.18" fill="#7E4FFF" fill-opacity="0.2" />
	<circle cx="3.18" cy="3.18" r="3.18" fill="#7E4FFF" fill-opacity="0.2" />
	<circle cx="18.7267" cy="3.18" r="3.18" fill="#7E4FFF" fill-opacity="0.2" />
	<circle cx="34.2733" cy="3.18" r="3.18" fill="#7E4FFF" fill-opacity="0.2" />
	<circle cx="49.82" cy="3.18" r="3.18" fill="#7E4FFF" fill-opacity="0.2" />
	<circle cx="3.18" cy="17.3134" r="3.18" fill="#7E4FFF" fill-opacity="0.2" />
	<circle cx="18.7267" cy="17.3134" r="3.18" fill="#7E4FFF" fill-opacity="0.2" />
	<circle cx="34.2733" cy="17.3134" r="3.18" fill="#7E4FFF" fill-opacity="0.2" />
	<circle cx="49.82" cy="17.3134" r="3.18" fill="#7E4FFF" fill-opacity="0.2" />
	<circle cx="3.18" cy="31.4467" r="3.18" fill="#7E4FFF" fill-opacity="0.2" />
	<circle cx="18.7267" cy="31.4467" r="3.18" fill="#7E4FFF" fill-opacity="0.2" />
	<circle cx="34.2733" cy="31.4467" r="3.18" fill="#7E4FFF" fill-opacity="0.2" />
	<circle cx="49.82" cy="31.4467" r="3.18" fill="#7E4FFF" fill-opacity="0.2" />
	<circle cx="3.18" cy="45.58" r="3.18" fill="#7E4FFF" fill-opacity="0.2" />
	<circle cx="18.7267" cy="45.58" r="3.18" fill="#7E4FFF" fill-opacity="0.2" />
	<circle cx="34.2733" cy="45.58" r="3.18" fill="#7E4FFF" fill-opacity="0.2" />
	<circle cx="49.82" cy="45.58" r="3.18" fill="#7E4FFF" fill-opacity="0.2" />
	<circle cx="3.18" cy="59.7133" r="3.18" fill="#7E4FFF" fill-opacity="0.2" />
	<circle cx="18.7267" cy="59.7133" r="3.18" fill="#7E4FFF" fill-opacity="0.2" />
	<circle cx="34.2733" cy="59.7133" r="3.18" fill="#7E4FFF" fill-opacity="0.2" />
	<circle cx="49.82" cy="59.7133" r="3.18" fill="#7E4FFF" fill-opacity="0.2" />
	<circle cx="3.18" cy="73.8467" r="3.18" fill="#7E4FFF" fill-opacity="0.2" />
	<circle cx="18.7267" cy="73.8467" r="3.18" fill="#7E4FFF" fill-opacity="0.2" />
	<circle cx="34.2733" cy="73.8467" r="3.18" fill="#7E4FFF" fill-opacity="0.2" />
	<circle cx="49.82" cy="73.8467" r="3.18" fill="#7E4FFF" fill-opacity="0.2" />
	<circle cx="3.18" cy="88.1933" r="3.18" fill="#7E4FFF" fill-opacity="0.2" />
	<circle cx="18.7266" cy="88.1933" r="3.18" fill="#7E4FFF" fill-opacity="0.2" />
	<circle cx="34.2733" cy="88.1933" r="3.18" fill="#7E4FFF" fill-opacity="0.2" />
	<circle cx="49.82" cy="88.1933" r="3.18" fill="#7E4FFF" fill-opacity="0.2" />
	<circle cx="3.18" cy="102.327" r="3.18" fill="#7E4FFF" fill-opacity="0.2" />
	<circle cx="18.7266" cy="102.327" r="3.18" fill="#7E4FFF" fill-opacity="0.2" />
	<circle cx="34.2733" cy="102.327" r="3.18" fill="#7E4FFF" fill-opacity="0.2" />
	<circle cx="49.82" cy="102.327" r="3.18" fill="#7E4FFF" fill-opacity="0.2" />
	<circle cx="3.18" cy="116.46" r="3.18" fill="#7E4FFF" fill-opacity="0.2" />
	<circle cx="18.7266" cy="116.46" r="3.18" fill="#7E4FFF" fill-opacity="0.2" />
	<circle cx="34.2733" cy="116.46" r="3.18" fill="#7E4FFF" fill-opacity="0.2" />
	<circle cx="49.82" cy="116.46" r="3.18" fill="#7E4FFF" fill-opacity="0.2" />
	<circle cx="3.18" cy="130.593" r="3.18" fill="#7E4FFF" fill-opacity="0.2" />
	<circle cx="18.7266" cy="130.593" r="3.18" fill="#7E4FFF" fill-opacity="0.2" />
	<circle cx="34.2733" cy="130.593" r="3.18" fill="#7E4FFF" fill-opacity="0.2" />
	<circle cx="49.82" cy="130.593" r="3.18" fill="#7E4FFF" fill-opacity="0.2" />
	<circle cx="3.18" cy="144.727" r="3.18" fill="#7E4FFF" fill-opacity="0.2" />
	<circle cx="18.7266" cy="144.727" r="3.18" fill="#7E4FFF" fill-opacity="0.2" />
	<circle cx="34.2733" cy="144.727" r="3.18" fill="#7E4FFF" fill-opacity="0.2" />
	<circle cx="49.82" cy="144.727" r="3.18" fill="#7E4FFF" fill-opacity="0.2" />
	<circle cx="3.18" cy="158.86" r="3.18" fill="#7E4FFF" fill-opacity="0.2" />
	<circle cx="18.7266" cy="158.86" r="3.18" fill="#7E4FFF" fill-opacity="0.2" />
	<circle cx="34.2733" cy="158.86" r="3.18" fill="#7E4FFF" fill-opacity="0.2" />
	<circle cx="49.82" cy="158.86" r="3.18" fill="#7E4FFF" fill-opacity="0.2" />
</svg>
