<svg width="306" height="131" viewBox="0 0 306 131" fill="none" xmlns="http://www.w3.org/2000/svg">
	<mask id="path-1-outside-1_79_5" maskUnits="userSpaceOnUse" x="0.139404" y="1.59998" width="303"
		height="129" fill="black">
		<rect fill="white" x="0.139404" y="1.59998" width="303" height="129" />
		<path
			d="M12.1394 92.7L58.6194 37.4H14.2394V13.6H90.1194V33.9L46.4394 89.2H90.9594V113H12.1394V92.7Z" />
		<path
			d="M143.5 27.6H160.5L178.009 76.78L200.429 13.6H230.109L191.189 113H165.509L151 66L133.369 113H110.689L71.7692 13.6H101.309L122.869 76.78L143.5 27.6Z" />
		<path
			d="M278.5 51C275.7 49.32 271.281 46.9066 268.294 45.6C265.774 44.48 262.928 43.4533 259.754 42.52C256.674 41.4933 253.641 40.98 250.654 40.98C248.228 40.98 246.268 41.3533 244.774 42.1C243.374 42.8466 242.674 44.1066 242.674 45.88C242.674 47.1866 243.094 48.26 243.934 49.1C244.774 49.94 245.988 50.7333 247.574 51.48C249.161 52.1333 251.074 52.7866 253.314 53.44C255.648 54.0933 258.261 54.8867 261.154 55.82C265.728 57.22 269.834 58.76 273.474 60.44C277.208 62.12 280.381 64.1267 282.994 66.46C285.608 68.7 287.614 71.4533 289.014 74.72C290.414 77.9866 291.114 81.9533 291.114 86.62C291.114 92.5933 289.994 97.6333 287.754 101.74C285.608 105.753 282.714 108.973 279.074 111.4C275.528 113.827 271.468 115.6 266.894 116.72C262.414 117.747 257.888 118.26 253.314 118.26C249.674 118.26 245.941 117.98 242.114 117.42C238.288 116.86 234.461 116.067 230.634 115.04C226.901 114.013 223.261 112.8 219.714 111.4C216.261 110 214.487 109.273 211.5 107.5C211.133 107.282 221 82.5 221 82.5C224.267 84.5533 228.488 86.5733 232.034 88.16C235.021 89.56 238.381 90.82 242.114 91.94C245.941 93.06 249.814 93.62 253.734 93.62C256.721 93.62 258.774 93.2467 259.894 92.5C261.108 91.66 261.714 90.5866 261.714 89.28C261.714 87.88 261.108 86.7133 259.894 85.78C258.774 84.7533 257.188 83.8666 255.134 83.12C253.081 82.3733 250.701 81.6266 247.994 80.88C245.381 80.1333 242.581 79.2467 239.594 78.22C235.208 76.7267 231.428 75.14 228.254 73.46C225.081 71.6867 222.468 69.7267 220.414 67.58C218.361 65.34 216.821 62.82 215.794 60.02C214.861 57.22 214.394 54 214.394 50.36C214.394 44.8533 215.374 40 217.334 35.8C219.388 31.6 222.141 28.1 225.594 25.3C229.048 22.5 232.968 20.4 237.354 19C241.834 17.5066 246.548 16.76 251.494 16.76C255.134 16.76 258.681 17.1333 262.134 17.88C265.588 18.5333 268.901 19.42 272.074 20.54C275.341 21.5666 278.374 22.7333 281.174 24.04C283.974 25.2533 285.494 26.42 287.734 27.54L278.5 51Z" />
	</mask>
	<path
		d="M12.1394 92.7L58.6194 37.4H14.2394V13.6H90.1194V33.9L46.4394 89.2H90.9594V113H12.1394V92.7Z"
		stroke="#FAF8FF" stroke-width="24" mask="url(#path-1-outside-1_79_5)" />
	<path
		d="M143.5 27.6H160.5L178.009 76.78L200.429 13.6H230.109L191.189 113H165.509L151 66L133.369 113H110.689L71.7692 13.6H101.309L122.869 76.78L143.5 27.6Z"
		stroke="#FAF8FF" stroke-width="24" mask="url(#path-1-outside-1_79_5)" />
	<path
		d="M278.5 51C275.7 49.32 271.281 46.9066 268.294 45.6C265.774 44.48 262.928 43.4533 259.754 42.52C256.674 41.4933 253.641 40.98 250.654 40.98C248.228 40.98 246.268 41.3533 244.774 42.1C243.374 42.8466 242.674 44.1066 242.674 45.88C242.674 47.1866 243.094 48.26 243.934 49.1C244.774 49.94 245.988 50.7333 247.574 51.48C249.161 52.1333 251.074 52.7866 253.314 53.44C255.648 54.0933 258.261 54.8867 261.154 55.82C265.728 57.22 269.834 58.76 273.474 60.44C277.208 62.12 280.381 64.1267 282.994 66.46C285.608 68.7 287.614 71.4533 289.014 74.72C290.414 77.9866 291.114 81.9533 291.114 86.62C291.114 92.5933 289.994 97.6333 287.754 101.74C285.608 105.753 282.714 108.973 279.074 111.4C275.528 113.827 271.468 115.6 266.894 116.72C262.414 117.747 257.888 118.26 253.314 118.26C249.674 118.26 245.941 117.98 242.114 117.42C238.288 116.86 234.461 116.067 230.634 115.04C226.901 114.013 223.261 112.8 219.714 111.4C216.261 110 214.487 109.273 211.5 107.5C211.133 107.282 221 82.5 221 82.5C224.267 84.5533 228.488 86.5733 232.034 88.16C235.021 89.56 238.381 90.82 242.114 91.94C245.941 93.06 249.814 93.62 253.734 93.62C256.721 93.62 258.774 93.2467 259.894 92.5C261.108 91.66 261.714 90.5866 261.714 89.28C261.714 87.88 261.108 86.7133 259.894 85.78C258.774 84.7533 257.188 83.8666 255.134 83.12C253.081 82.3733 250.701 81.6266 247.994 80.88C245.381 80.1333 242.581 79.2467 239.594 78.22C235.208 76.7267 231.428 75.14 228.254 73.46C225.081 71.6867 222.468 69.7267 220.414 67.58C218.361 65.34 216.821 62.82 215.794 60.02C214.861 57.22 214.394 54 214.394 50.36C214.394 44.8533 215.374 40 217.334 35.8C219.388 31.6 222.141 28.1 225.594 25.3C229.048 22.5 232.968 20.4 237.354 19C241.834 17.5066 246.548 16.76 251.494 16.76C255.134 16.76 258.681 17.1333 262.134 17.88C265.588 18.5333 268.901 19.42 272.074 20.54C275.341 21.5666 278.374 22.7333 281.174 24.04C283.974 25.2533 285.494 26.42 287.734 27.54L278.5 51Z"
		stroke="#FAF8FF" stroke-width="24" mask="url(#path-1-outside-1_79_5)" />
	<path d="M81.5 60.9999L64 82.4999H89.5L81.5 60.9999Z" fill="#FAF8FF" />
	<path
		d="M177.5 41.9999L191.9 0.599976H249.297C270.082 0.599976 290.187 8.01023 306 21.5L291.5 59L284 49.9999L295.5 18.9998L281.5 12.9998L232 5.49992L198.5 11.4999L177.5 41.9999Z"
		fill="#FAF8FF" />
</svg>
